<svg xmlns="http://www.w3.org/2000/svg" viewBox="0 0 100 100" overflow="visible">
  <defs>
    <linearGradient id="g" x1="0" y1="0" x2="0" y2="1">
      <stop offset="0" stop-color="#F2C770"></stop>
      <stop offset=".5" stop-color="#D9A84E"></stop>
      <stop offset="1" stop-color="#A87E32"></stop>
    </linearGradient>
  </defs>

  
  <g id="lid">
    
    <path d="M 14 12 L 86 8 L 86 32 L 14 36 Z" fill="#0B1438"></path>
    <path d="M 16 13 L 84 9.5 L 84 30.5 L 16 34.5 Z" fill="url(#g)"></path>
    <path d="M 18 14.5 L 82 11 L 82 29 L 18 33 Z" fill="#0B1438"></path>
    
    <path d="M 14 22 L 14 12 L 26 11 L 26 14.5 L 18 15 L 18 22 Z" fill="url(#g)" stroke="#0B1438" stroke-width=".4"></path>
    <path d="M 86 20 L 86 8 L 74 9 L 74 12.5 L 82 12 L 82 20 Z" fill="url(#g)" stroke="#0B1438" stroke-width=".4"></path>
    
    <rect x="38" y="18" width="24" height="9" rx=".4" fill="#1A1A2E"></rect>
    <rect x="38.5" y="18.5" width="23" height="8" rx=".3" fill="none" stroke="#D9A84E" stroke-width=".4"></rect>
    <line x1="40" y1="21" x2="60" y2="21" stroke="#D9A84E" stroke-width=".3" stroke-opacity=".6"></line>
    <line x1="40" y1="23.5" x2="60" y2="23.5" stroke="#D9A84E" stroke-width=".3" stroke-opacity=".6"></line>
  </g>

  
  <g id="handle">
    <path d="M 42 10 C 42 0, 58 0, 58 10" fill="none" stroke="#0B1438" stroke-width="4" stroke-linecap="round"></path>
    <path d="M 42 10 C 42 1.5, 58 1.5, 58 10" fill="none" stroke="#1A1A2E" stroke-width="2.4" stroke-linecap="round"></path>
    <path d="M 44 4 C 47 1.5, 53 1.5, 56 4" fill="none" stroke="#FFF" stroke-opacity=".25" stroke-width=".7" stroke-linecap="round"></path>
    
    <rect x="40" y="10" width="4" height="4" fill="url(#g)" stroke="#0B1438" stroke-width=".4"></rect>
    <rect x="56" y="10" width="4" height="4" fill="url(#g)" stroke="#0B1438" stroke-width=".4"></rect>
  </g>

  
  <g id="records-inside">
    
    
    <g>
      <path d="M 22 32 L 22 50 L 26 52 L 26 32 Z" fill="#E85A2A"></path>
      <path d="M 26 32 L 26 52 L 30 50 L 30 32 Z" fill="#FBF5EA"></path>
      <path d="M 30 32 L 30 50 L 34 52 L 34 32 Z" fill="#2A4BD7"></path>
      <path d="M 34 32 L 34 52 L 38 50 L 38 32 Z" fill="#FBF5EA"></path>
      <path d="M 38 32 L 38 52 L 42 52 L 42 32 Z" fill="#5C7AE8"></path>
      <path d="M 42 32 L 42 52 L 46 50 L 46 32 Z" fill="#FBF5EA"></path>
      <path d="M 46 32 L 46 52 L 50 52 L 50 32 Z" fill="#E85A2A"></path>
      <path d="M 50 32 L 50 52 L 54 50 L 54 32 Z" fill="#FBF5EA"></path>
      <path d="M 54 32 L 54 52 L 58 52 L 58 32 Z" fill="#2A4BD7"></path>
      <path d="M 58 32 L 58 52 L 62 50 L 62 32 Z" fill="#FBF5EA"></path>
      <path d="M 62 32 L 62 52 L 66 52 L 66 32 Z" fill="#0B1438"></path>
      <path d="M 66 32 L 66 52 L 70 50 L 70 32 Z" fill="#FBF5EA"></path>
      <path d="M 70 32 L 70 52 L 74 52 L 74 32 Z" fill="#E85A2A"></path>
      <path d="M 74 32 L 74 52 L 78 52 L 78 32 Z" fill="#2A4BD7"></path>
    </g>
    
    <rect x="22" y="32" width="56" height="1.5" fill="#000" fill-opacity=".55"></rect>
    
    <g stroke="#D9A84E" stroke-width=".25" stroke-opacity=".4">
      <line x1="26" y1="32" x2="26" y2="52"></line>
      <line x1="30" y1="32" x2="30" y2="52"></line>
      <line x1="34" y1="32" x2="34" y2="52"></line>
      <line x1="38" y1="32" x2="38" y2="52"></line>
      <line x1="42" y1="32" x2="42" y2="52"></line>
      <line x1="46" y1="32" x2="46" y2="52"></line>
      <line x1="50" y1="32" x2="50" y2="52"></line>
      <line x1="54" y1="32" x2="54" y2="52"></line>
      <line x1="58" y1="32" x2="58" y2="52"></line>
      <line x1="62" y1="32" x2="62" y2="52"></line>
      <line x1="66" y1="32" x2="66" y2="52"></line>
      <line x1="70" y1="32" x2="70" y2="52"></line>
      <line x1="74" y1="32" x2="74" y2="52"></line>
    </g>
  </g>

  
  <g id="case-front">
    
    <path d="M 12 50 L 88 50 L 88 96 L 12 96 Z" fill="#0B1438"></path>
    <path d="M 14 51.5 L 86 51.5 L 86 94.5 L 14 94.5 Z" fill="url(#g)"></path>
    <path d="M 16 53 L 84 53 L 84 93 L 16 93 Z" fill="#0B1438"></path>
    
    <line x1="16" y1="54" x2="84" y2="54" stroke="#000" stroke-opacity=".6" stroke-width="1"></line>
  </g>

  
  <g id="corners">
    
    <path d="M 12 64 L 12 50 L 28 50 L 28 53 L 16 53 L 16 64 Z" fill="url(#g)" stroke="#0B1438" stroke-width=".5"></path>
    
    <path d="M 88 64 L 88 50 L 72 50 L 72 53 L 84 53 L 84 64 Z" fill="url(#g)" stroke="#0B1438" stroke-width=".5"></path>
    
    <path d="M 12 82 L 12 96 L 28 96 L 28 93 L 16 93 L 16 82 Z" fill="url(#g)" stroke="#0B1438" stroke-width=".5"></path>
    
    <path d="M 88 82 L 88 96 L 72 96 L 72 93 L 84 93 L 84 82 Z" fill="url(#g)" stroke="#0B1438" stroke-width=".5"></path>
    
    <g fill="#0B1438">
      <circle cx="18" cy="56" r=".7"></circle>
      <circle cx="22" cy="60" r=".7"></circle>
      <circle cx="82" cy="56" r=".7"></circle>
      <circle cx="78" cy="60" r=".7"></circle>
      <circle cx="18" cy="90" r=".7"></circle>
      <circle cx="22" cy="86" r=".7"></circle>
      <circle cx="82" cy="90" r=".7"></circle>
      <circle cx="78" cy="86" r=".7"></circle>
    </g>
  </g>

  
  <g id="latches">
    <rect x="12" y="74" width="6" height="5" fill="url(#g)" stroke="#0B1438" stroke-width=".4"></rect>
    <rect x="82" y="74" width="6" height="5" fill="url(#g)" stroke="#0B1438" stroke-width=".4"></rect>
  </g>

  
  <g id="seal" transform="translate(50 74)">
    
    <g fill="#0B1438">
      <circle cx="0" cy="-15" r="1.3"></circle>
      <circle cx="0" cy="-15" r="1.3" transform="rotate(22.5)"></circle>
      <circle cx="0" cy="-15" r="1.3" transform="rotate(45)"></circle>
      <circle cx="0" cy="-15" r="1.3" transform="rotate(67.5)"></circle>
      <circle cx="0" cy="-15" r="1.3" transform="rotate(90)"></circle>
      <circle cx="0" cy="-15" r="1.3" transform="rotate(112.5)"></circle>
      <circle cx="0" cy="-15" r="1.3" transform="rotate(135)"></circle>
      <circle cx="0" cy="-15" r="1.3" transform="rotate(157.5)"></circle>
      <circle cx="0" cy="-15" r="1.3" transform="rotate(180)"></circle>
      <circle cx="0" cy="-15" r="1.3" transform="rotate(202.5)"></circle>
      <circle cx="0" cy="-15" r="1.3" transform="rotate(225)"></circle>
      <circle cx="0" cy="-15" r="1.3" transform="rotate(247.5)"></circle>
      <circle cx="0" cy="-15" r="1.3" transform="rotate(270)"></circle>
      <circle cx="0" cy="-15" r="1.3" transform="rotate(292.5)"></circle>
      <circle cx="0" cy="-15" r="1.3" transform="rotate(315)"></circle>
      <circle cx="0" cy="-15" r="1.3" transform="rotate(337.5)"></circle>
    </g>
    
    <circle r="14.5" fill="url(#g)"></circle>
    <circle r="14.5" fill="none" stroke="#0B1438" stroke-width=".4"></circle>
    
    <circle r="12.5" fill="#0B1438"></circle>
    <circle r="11.8" fill="#E85A2A"></circle>
    <path d="M -10 0 A 10 10 0 0 1 10 0" fill="none" stroke="#7A2410" stroke-opacity=".6" stroke-width="1.2" transform="translate(0,-.6)"></path>
    <circle r="11" fill="none" stroke="#D9A84E" stroke-width=".5"></circle>

    
    <g fill="url(#g)" stroke="#0B1438" stroke-width=".2" stroke-linejoin="round">
      <ellipse cx="-8" cy="-4" rx="1.8" ry=".8" transform="rotate(-55 -8 -4)"></ellipse>
      <ellipse cx="-9" cy="0" rx="1.8" ry=".8" transform="rotate(-90 -9 0)"></ellipse>
      <ellipse cx="-8" cy="4" rx="1.8" ry=".8" transform="rotate(-125 -8 4)"></ellipse>
      <ellipse cx="8" cy="-4" rx="1.8" ry=".8" transform="rotate(55 8 -4)"></ellipse>
      <ellipse cx="9" cy="0" rx="1.8" ry=".8" transform="rotate(90 9 0)"></ellipse>
      <ellipse cx="8" cy="4" rx="1.8" ry=".8" transform="rotate(125 8 4)"></ellipse>
    </g>

    
    <g fill="none" stroke="url(#g)" stroke-width="2" stroke-linecap="round" stroke-linejoin="round">
      
      <path d="M -1 -5 L -5 -5 L -5 -1 L -3 -1 A 2.4 2.4 0 1 1 -5 3"></path>
      
      <ellipse cx="3.4" cy="-1" rx="2.8" ry="4"></ellipse>
    </g>
    <g fill="none" stroke="#0B1438" stroke-width=".5" stroke-linecap="round" stroke-linejoin="round" opacity=".5">
      <path d="M -1 -5 L -5 -5 L -5 -1 L -3 -1 A 2.4 2.4 0 1 1 -5 3"></path>
      <ellipse cx="3.4" cy="-1" rx="2.8" ry="4"></ellipse>
    </g>

    
    <g transform="translate(0 12)">
      <path d="M -8 0 L -2 4 L 0 2 L 2 4 L 8 0 L 6 5 L 2 7 L 0 6 L -2 7 L -6 5 Z" fill="#E85A2A" stroke="#0B1438" stroke-width=".4"></path>
      <line x1="-5" y1="2" x2="-3" y2="4" stroke="#7A2410" stroke-width=".3"></line>
      <line x1="5" y1="2" x2="3" y2="4" stroke="#7A2410" stroke-width=".3"></line>
    </g>
  </g>

  <g id="highlights">
    <path d="M 18 56 Q 24 54 36 54" fill="none" stroke="#FFF" stroke-opacity=".4" stroke-width="1.2" stroke-linecap="round"></path>
    <path d="M 20 16 Q 30 14 50 13" fill="none" stroke="#FFF" stroke-opacity=".35" stroke-width="1" stroke-linecap="round"></path>
  </g>
</svg>