<svg xmlns="http://www.w3.org/2000/svg" viewBox="0 0 100 100" overflow="visible">
  <defs>
    <linearGradient id="g" x1="0" y1="0" x2="0" y2="1">
      <stop offset="0" stop-color="#F2C770"></stop>
      <stop offset=".5" stop-color="#D9A84E"></stop>
      <stop offset="1" stop-color="#A87E32"></stop>
    </linearGradient>
  </defs>

  
  <g id="rays">
    <g stroke="url(#g)" stroke-width="2.6" stroke-linecap="round">
      <line x1="50" y1="6" x2="50" y2="-6"></line>
      <line x1="36" y1="9" x2="32" y2="-2"></line>
      <line x1="64" y1="9" x2="68" y2="-2"></line>
      <line x1="22" y1="18" x2="14" y2="8"></line>
      <line x1="78" y1="18" x2="86" y2="8"></line>
      <line x1="12" y1="32" x2="0" y2="28"></line>
      <line x1="88" y1="32" x2="100" y2="28"></line>
    </g>
    <g stroke="#0B1438" stroke-width=".4" stroke-linecap="round">
      <line x1="50" y1="6" x2="50" y2="-6"></line>
      <line x1="36" y1="9" x2="32" y2="-2"></line>
      <line x1="64" y1="9" x2="68" y2="-2"></line>
      <line x1="22" y1="18" x2="14" y2="8"></line>
      <line x1="78" y1="18" x2="86" y2="8"></line>
      <line x1="12" y1="32" x2="0" y2="28"></line>
      <line x1="88" y1="32" x2="100" y2="28"></line>
    </g>
    <g fill="url(#g)">
      <circle cx="50" cy="-6" r="1.6"></circle>
      <circle cx="32" cy="-2" r="1.3"></circle>
      <circle cx="68" cy="-2" r="1.3"></circle>
      <circle cx="14" cy="8" r="1.3"></circle>
      <circle cx="86" cy="8" r="1.3"></circle>
      <circle cx="0" cy="28" r="1.3"></circle>
      <circle cx="100" cy="28" r="1.3"></circle>
    </g>
  </g>

  
  <g id="outline">
    <circle cx="50" cy="52" r="44" fill="#0B1438"></circle>
    <circle cx="50" cy="52" r="42.5" fill="url(#g)"></circle>
  </g>

  <g id="enamel">
    <circle cx="50" cy="52" r="40" fill="#1A1A2E"></circle>
    <path d="M 12 52 A 38 38 0 0 1 88 52" fill="none" stroke="#000" stroke-opacity=".5" stroke-width="1.6" transform="translate(0,-1)"></path>
  </g>

  
  <g id="grooves" stroke="#D9A84E" stroke-width=".35" stroke-opacity=".55" fill="none">
    <circle cx="50" cy="52" r="36"></circle>
    <circle cx="50" cy="52" r="32"></circle>
    <circle cx="50" cy="52" r="28"></circle>
    <circle cx="50" cy="52" r="24"></circle>
  </g>

  
  <g id="coin" transform="translate(50 52)">
    
    <g fill="#0B1438">
      <circle cx="0" cy="-20" r="1.6"></circle>
      <circle cx="0" cy="-20" r="1.6" transform="rotate(18)"></circle>
      <circle cx="0" cy="-20" r="1.6" transform="rotate(36)"></circle>
      <circle cx="0" cy="-20" r="1.6" transform="rotate(54)"></circle>
      <circle cx="0" cy="-20" r="1.6" transform="rotate(72)"></circle>
      <circle cx="0" cy="-20" r="1.6" transform="rotate(90)"></circle>
      <circle cx="0" cy="-20" r="1.6" transform="rotate(108)"></circle>
      <circle cx="0" cy="-20" r="1.6" transform="rotate(126)"></circle>
      <circle cx="0" cy="-20" r="1.6" transform="rotate(144)"></circle>
      <circle cx="0" cy="-20" r="1.6" transform="rotate(162)"></circle>
      <circle cx="0" cy="-20" r="1.6" transform="rotate(180)"></circle>
      <circle cx="0" cy="-20" r="1.6" transform="rotate(198)"></circle>
      <circle cx="0" cy="-20" r="1.6" transform="rotate(216)"></circle>
      <circle cx="0" cy="-20" r="1.6" transform="rotate(234)"></circle>
      <circle cx="0" cy="-20" r="1.6" transform="rotate(252)"></circle>
      <circle cx="0" cy="-20" r="1.6" transform="rotate(270)"></circle>
      <circle cx="0" cy="-20" r="1.6" transform="rotate(288)"></circle>
      <circle cx="0" cy="-20" r="1.6" transform="rotate(306)"></circle>
      <circle cx="0" cy="-20" r="1.6" transform="rotate(324)"></circle>
      <circle cx="0" cy="-20" r="1.6" transform="rotate(342)"></circle>
    </g>
    
    <circle r="19" fill="url(#g)"></circle>
    <circle r="19" fill="none" stroke="#0B1438" stroke-width=".4"></circle>
    
    <circle r="16.5" fill="#0B1438"></circle>
    <circle r="15.5" fill="#E89AC0"></circle>
    
    <path d="M -13 0 A 13 13 0 0 1 13 0" fill="none" stroke="#7A4360" stroke-opacity=".55" stroke-width="1.3" transform="translate(0,-1)"></path>
    
    <circle r="14.5" fill="none" stroke="#D9A84E" stroke-width=".5"></circle>

    
    <g fill="url(#g)" stroke="#0B1438" stroke-width=".25" stroke-linejoin="round">
      
      <ellipse cx="-11" cy="-5" rx="2.6" ry="1.1" transform="rotate(-55 -11 -5)"></ellipse>
      <ellipse cx="-12" cy="0" rx="2.6" ry="1.1" transform="rotate(-90 -12 0)"></ellipse>
      <ellipse cx="-11.5" cy="5" rx="2.6" ry="1.1" transform="rotate(-125 -11.5 5)"></ellipse>
      <ellipse cx="-9" cy="9.5" rx="2.6" ry="1.1" transform="rotate(-155 -9 9.5)"></ellipse>
      
      <ellipse cx="11" cy="-5" rx="2.6" ry="1.1" transform="rotate(55 11 -5)"></ellipse>
      <ellipse cx="12" cy="0" rx="2.6" ry="1.1" transform="rotate(90 12 0)"></ellipse>
      <ellipse cx="11.5" cy="5" rx="2.6" ry="1.1" transform="rotate(125 11.5 5)"></ellipse>
      <ellipse cx="9" cy="9.5" rx="2.6" ry="1.1" transform="rotate(155 9 9.5)"></ellipse>
      
      <path d="M -4 12 L 0 13.5 L 4 12 L 3 14 L 0 14.5 L -3 14 Z"></path>
    </g>

    
    
    <g fill="none" stroke="url(#g)" stroke-width="2" stroke-linecap="round" stroke-linejoin="round">
      
      <path d="M -7.5 -5.5 A 3.2 3.2 0 1 1 -3.5 -1 A 3.2 3.2 0 1 1 -7.5 3.5"></path>
      
      <path d="M 1 -5.5 A 3.2 3.2 0 1 1 5 -1 A 3.2 3.2 0 1 1 1 3.5"></path>
    </g>
    
    <g fill="none" stroke="#0B1438" stroke-width=".5" stroke-linecap="round" stroke-linejoin="round" opacity=".5">
      <path d="M -7.5 -5.5 A 3.2 3.2 0 1 1 -3.5 -1 A 3.2 3.2 0 1 1 -7.5 3.5"></path>
      <path d="M 1 -5.5 A 3.2 3.2 0 1 1 5 -1 A 3.2 3.2 0 1 1 1 3.5"></path>
    </g>
    
    <g fill="url(#g)" stroke="#0B1438" stroke-width=".3">
      <rect x="-8.5" y="-6.4" width="2" height="1.4" rx=".2"></rect>
      <rect x="0" y="-6.4" width="2" height="1.4" rx=".2"></rect>
    </g>

    
    <g transform="translate(7.5 -3)">
      
      <g fill="url(#g)" stroke="#0B1438" stroke-width=".25" stroke-linejoin="round">
        <path d="M -1.5 -2 L 0 -2.8 L 0 1.4 L 1 1.4 L 1 2.2 L -2.2 2.2 L -2.2 1.4 L -1 1.4 L -1 -1.5 L -1.8 -1.2 Z"></path>
      </g>
      
      <rect x="-.6" y="2" width="6.4" height=".8" transform="rotate(-32)" fill="url(#g)" stroke="#0B1438" stroke-width=".2"></rect>
      
      <g transform="translate(3.6 4.2)" fill="none" stroke="url(#g)" stroke-width="1.1" stroke-linecap="round" stroke-linejoin="round">
        <path d="M -1.8 -1.5 A 1.1 1.1 0 1 1 -.8 0 A 1.1 1.1 0 1 1 -1.8 1.5"></path>
      </g>
    </g>
  </g>

  
  <g id="sparkles">
    <g transform="translate(72 26)">
      <path d="M0 -4.2 L1.2 -1.2 L4.2 0 L1.2 1.2 L0 4.2 L-1.2 1.2 L-4.2 0 L-1.2 -1.2 Z" fill="url(#g)"></path>
      <path d="M0 -2.5 L.7 -.7 L2.5 0 L.7 .7 L0 2.5 L-.7 .7 L-2.5 0 L-.7 -.7 Z" fill="#FBF5EA" fill-opacity=".85"></path>
    </g>
    <g transform="translate(24 78)">
      <path d="M0 -3.4 L1 -1 L3.4 0 L1 1 L0 3.4 L-1 1 L-3.4 0 L-1 -1 Z" fill="url(#g)"></path>
    </g>
    <g transform="translate(82 70)">
      <path d="M0 -2.8 L.8 -.8 L2.8 0 L.8 .8 L0 2.8 L-.8 .8 L-2.8 0 L-.8 -.8 Z" fill="url(#g)"></path>
    </g>
  </g>

  <g id="highlights">
    <path d="M 14 40 Q 22 22 42 18" fill="none" stroke="#FFF" stroke-opacity=".45" stroke-width="1.8" stroke-linecap="round"></path>
    <path d="M 20 42 Q 28 30 42 28" fill="none" stroke="#FFF" stroke-opacity=".2" stroke-width=".8" stroke-linecap="round"></path>
  </g>
</svg>