<svg xmlns="http://www.w3.org/2000/svg" viewBox="0 0 100 100" overflow="visible">
  <defs>
    <linearGradient id="g" x1="0" y1="0" x2="0" y2="1">
      <stop offset="0" stop-color="#F2C770"></stop>
      <stop offset=".5" stop-color="#D9A84E"></stop>
      <stop offset="1" stop-color="#A87E32"></stop>
    </linearGradient>
  </defs>

  <g id="outline">
    <circle cx="50" cy="50" r="47" fill="#0B1438"></circle>
    <circle cx="50" cy="50" r="45.6" fill="url(#g)"></circle>
    <circle cx="50" cy="50" r="42.6" fill="none" stroke="#0B1438" stroke-width=".6" stroke-opacity=".5"></circle>
  </g>

  <g id="enamel">
    <circle cx="50" cy="50" r="42" fill="#1A1A2E"></circle>
    <path d="M14 50 A36 36 0 0 1 86 50" fill="none" stroke="#000" stroke-opacity=".55" stroke-width="1.6" transform="translate(0,-1)"></path>
  </g>

  <g id="metal-lines">
    <circle cx="50" cy="50" r="38" fill="none" stroke="#D9A84E" stroke-width=".35" stroke-opacity=".55"></circle>
    <circle cx="50" cy="50" r="34" fill="none" stroke="#D9A84E" stroke-width=".35" stroke-opacity=".55"></circle>
    <circle cx="50" cy="50" r="30" fill="none" stroke="#D9A84E" stroke-width=".35" stroke-opacity=".55"></circle>
    <circle cx="50" cy="50" r="26" fill="none" stroke="#D9A84E" stroke-width=".35" stroke-opacity=".55"></circle>
    <circle cx="50" cy="50" r="22" fill="none" stroke="#D9A84E" stroke-width=".35" stroke-opacity=".55"></circle>

    <circle cx="50" cy="50" r="13.2" fill="#0B1438"></circle>
    <circle cx="50" cy="50" r="12.4" fill="#E85A2A"></circle>
    <path d="M38.5 50 A11.5 11.5 0 0 1 61.5 50" fill="none" stroke="#000" stroke-opacity=".25" stroke-width="1.2" transform="translate(0,-.6)"></path>
    <circle cx="50" cy="50" r="11.6" fill="none" stroke="#D9A84E" stroke-width=".5"></circle>
    <circle cx="50" cy="50" r="1.8" fill="#FBF5EA"></circle>
  </g>

  <g id="tonearm">
    <line x1="106" y1="-5" x2="35" y2="34" stroke="#0B1438" stroke-width="5.4" stroke-linecap="round"></line>
    <line x1="106" y1="-5" x2="35" y2="34" stroke="url(#g)" stroke-width="3" stroke-linecap="round"></line>
    <line x1="103" y1="-3" x2="42" y2="30" stroke="#FFF" stroke-opacity=".25" stroke-width=".5" stroke-linecap="round"></line>

    <circle cx="106" cy="-5" r="8.5" fill="#0B1438"></circle>
    <circle cx="106" cy="-5" r="6.8" fill="url(#g)"></circle>
    <circle cx="106" cy="-5" r="2.4" fill="#0B1438"></circle>

    <g transform="rotate(-30 35 34)">
      <rect x="27.5" y="31" width="11" height="6" rx=".8" fill="#0B1438"></rect>
      <rect x="28.5" y="31.7" width="9" height="1.8" fill="#E85A2A"></rect>
      <circle cx="36.5" cy="36.6" r=".9" fill="#D9A84E"></circle>
    </g>
  </g>

  <g id="sparkles">
    <path d="M33 36 L35.6 30.5 L38 36 L43.5 38.3 L38 40.5 L35.6 46 L33 40.5 L27.5 38.3 Z" fill="#D9A84E"></path>
    <path d="M33 36 L35.6 32.5 L38 36 L41.5 38.3 L38 40.5 L35.6 43.7 L33 40.5 L29.7 38.3 Z" fill="#FBF5EA" fill-opacity=".75"></path>
  </g>

  <g id="highlights">
    <path d="M20 38 Q32 18 60 18" fill="none" stroke="#FFF" stroke-opacity=".35" stroke-width="1.8" stroke-linecap="round"></path>
    <path d="M25 35 Q35 25 50 24" fill="none" stroke="#FFF" stroke-opacity=".18" stroke-width=".8" stroke-linecap="round"></path>
  </g>
</svg>