<svg xmlns="http://www.w3.org/2000/svg" viewBox="0 0 100 100" overflow="visible">
  <defs>
    <linearGradient id="g" x1="0" y1="0" x2="0" y2="1">
      <stop offset="0" stop-color="#F2C770"></stop>
      <stop offset=".5" stop-color="#D9A84E"></stop>
      <stop offset="1" stop-color="#A87E32"></stop>
    </linearGradient>
  </defs>

  
  <g id="outline">
    
    <path d="M 14 42 L 26 30 L 88 30 L 88 80 L 76 92 L 14 92 Z" fill="#0B1438"></path>
    
    <path d="M 15.5 42.5 L 27 31 L 86.5 31 L 86.5 79 L 75 90.5 L 15.5 90.5 Z" fill="url(#g)"></path>
    
    <path d="M 17 43 L 28 32 L 85 32 L 85 78 L 74 89 L 17 89 Z" fill="#0B1438"></path>
  </g>

  
  
  <g id="top-face">
    <path d="M 18 44 L 28 34 L 84 34 L 74 44 Z" fill="#FBF5EA"></path>
    
    <path d="M 18 44 L 28 34 L 84 34 L 74 44 Z" fill="#5C7AE8" opacity=".18"></path>
    
    <line x1="28" y1="34" x2="84" y2="34" stroke="#8C7A4A" stroke-opacity=".4" stroke-width="1"></line>
  </g>

  
  <g id="side-face">
    <path d="M 74 44 L 84 34 L 84 78 L 74 88 Z" fill="#FBF5EA"></path>
    <path d="M 74 44 L 84 34 L 84 78 L 74 88 Z" fill="#5C7AE8" opacity=".32"></path>
  </g>

  
  <g id="front-face">
    <rect x="18" y="44" width="56" height="44" fill="#FBF5EA"></rect>
    
    <line x1="19" y1="44.6" x2="73" y2="44.6" stroke="#8C7A4A" stroke-opacity=".4" stroke-width=".7"></line>
  </g>

  
  <g id="ribbon-v">
    
    <path d="M 52 34 L 60 34 L 50 44 L 42 44 Z" fill="#1A1A2E" stroke="#0B1438" stroke-width=".4"></path>
    
    <line x1="51" y1="37" x2="58.5" y2="37" stroke="#D9A84E" stroke-width=".3" stroke-opacity=".7"></line>
    <line x1="49" y1="40" x2="56" y2="40" stroke="#D9A84E" stroke-width=".3" stroke-opacity=".7"></line>
    
    
    
    <rect x="42" y="44" width="8" height="44" fill="#1A1A2E" stroke="#0B1438" stroke-width=".4"></rect>
    
    <g stroke="#D9A84E" stroke-width=".3" stroke-opacity=".7">
      <line x1="42.5" y1="48" x2="49.5" y2="48"></line>
      <line x1="42.5" y1="51" x2="49.5" y2="51"></line>
      <line x1="42.5" y1="58" x2="49.5" y2="58"></line>
      <line x1="42.5" y1="61" x2="49.5" y2="61"></line>
      <line x1="42.5" y1="71" x2="49.5" y2="71"></line>
      <line x1="42.5" y1="74" x2="49.5" y2="74"></line>
      <line x1="42.5" y1="82" x2="49.5" y2="82"></line>
      <line x1="42.5" y1="85" x2="49.5" y2="85"></line>
    </g>
    
    <line x1="42.5" y1="44.5" x2="49.5" y2="44.5" stroke="#FFF" stroke-opacity=".25" stroke-width=".4"></line>
  </g>

  
  <g id="ribbon-h">
    <rect x="18" y="62" width="56" height="8" fill="#1A1A2E" stroke="#0B1438" stroke-width=".4"></rect>
    
    <g stroke="#D9A84E" stroke-width=".3" stroke-opacity=".7">
      <line x1="20" y1="64.5" x2="42" y2="64.5"></line>
      <line x1="20" y1="67" x2="42" y2="67"></line>
      <line x1="50" y1="64.5" x2="72" y2="64.5"></line>
      <line x1="50" y1="67" x2="72" y2="67"></line>
    </g>
    <line x1="19" y1="62.5" x2="73" y2="62.5" stroke="#FFF" stroke-opacity=".22" stroke-width=".4"></line>
  </g>

  
  <g id="bow">
    
    <path d="M 50 26 L 47 36 L 50 34 Z" fill="#1A1A2E" stroke="#0B1438" stroke-width=".4"></path>
    <path d="M 58 26 L 61 36 L 58 34 Z" fill="#1A1A2E" stroke="#0B1438" stroke-width=".4"></path>

    
    <g transform="rotate(-30 54 16)">
      <ellipse cx="40" cy="8" rx="14" ry="9" fill="#0B1438"></ellipse>
      <ellipse cx="40" cy="8" rx="13" ry="8" fill="#1A1A2E"></ellipse>
      <ellipse cx="40" cy="8" rx="7" ry="4.4" fill="#0B1438"></ellipse>
      <g stroke="#D9A84E" stroke-width=".3" stroke-opacity=".65" fill="none">
        <ellipse cx="40" cy="8" rx="11" ry="6.8"></ellipse>
        <ellipse cx="40" cy="8" rx="9.5" ry="5.7"></ellipse>
        <ellipse cx="40" cy="8" rx="8" ry="4.7"></ellipse>
      </g>
      <path d="M 34 2 Q 40 -2 48 2" fill="none" stroke="#FFF" stroke-opacity=".3" stroke-width=".8" stroke-linecap="round"></path>
    </g>

    
    <g transform="rotate(30 54 16)">
      <ellipse cx="68" cy="8" rx="14" ry="9" fill="#0B1438"></ellipse>
      <ellipse cx="68" cy="8" rx="13" ry="8" fill="#1A1A2E"></ellipse>
      <ellipse cx="68" cy="8" rx="7" ry="4.4" fill="#0B1438"></ellipse>
      <g stroke="#D9A84E" stroke-width=".3" stroke-opacity=".65" fill="none">
        <ellipse cx="68" cy="8" rx="11" ry="6.8"></ellipse>
        <ellipse cx="68" cy="8" rx="9.5" ry="5.7"></ellipse>
        <ellipse cx="68" cy="8" rx="8" ry="4.7"></ellipse>
      </g>
      <path d="M 60 2 Q 68 -2 74 2" fill="none" stroke="#FFF" stroke-opacity=".3" stroke-width=".8" stroke-linecap="round"></path>
    </g>

    
    <ellipse cx="54" cy="20" rx="9.5" ry="8" fill="#0B1438"></ellipse>
    <ellipse cx="54" cy="20" rx="8.6" ry="7" fill="#E85A2A"></ellipse>
    <path d="M 46 20 A 7.5 6 0 0 1 62 20" fill="none" stroke="#7A2410" stroke-opacity=".6" stroke-width="1.2"></path>
    <ellipse cx="54" cy="20" rx="7.9" ry="6.3" fill="none" stroke="#D9A84E" stroke-width=".5"></ellipse>
    <circle cx="54" cy="20" r="1.2" fill="#FBF5EA"></circle>
    
    <line x1="46" y1="17" x2="62" y2="17" stroke="#0B1438" stroke-width=".7" stroke-opacity=".4"></line>
    <line x1="46" y1="23" x2="62" y2="23" stroke="#0B1438" stroke-width=".7" stroke-opacity=".4"></line>
  </g>

  <g id="highlights">
    <path d="M 20 48 Q 26 46 36 46" fill="none" stroke="#FFF" stroke-opacity=".5" stroke-width="1.2" stroke-linecap="round"></path>
    
    <path d="M 28 38 Q 40 36 60 36" fill="none" stroke="#FFF" stroke-opacity=".35" stroke-width=".8" stroke-linecap="round"></path>
  </g>
</svg>